<svg width="109" height="20" viewBox="0 0 109 20" fill="none" xmlns="http://www.w3.org/2000/svg">
<path fill-rule="evenodd" clip-rule="evenodd" d="M18.5714 3.21442C18.5714 4.20065 17.7719 5.00014 16.7857 5.00014C15.7995 5.00014 15 4.20065 15 3.21442C15 2.2282 15.7995 1.42871 16.7857 1.42871C17.7719 1.42871 18.5714 2.2282 18.5714 3.21442ZM12.3929 4.10728C10.8929 3.28585 9.39286 2.85728 5.25 2.85728H0V3.89299V20.0001H16.1071H17.1429V14.7501C17.1429 10.6073 16.7143 9.10728 15.8929 7.60728C15.1071 6.10728 13.8929 4.89299 12.3929 4.10728ZM11.75 5.32157C13.0357 6.00015 14 7.00015 14.6786 8.25015C15.4643 9.75014 15.75 11.1787 15.75 14.7501V17.893L2.10713 4.25015H5.24998C8.7857 4.25015 10.25 4.53586 11.75 5.32157Z" fill="black"/>
<path fill-rule="evenodd" clip-rule="evenodd" d="M28.7267 7.85713C30.3909 7.85713 31.6681 8.37269 32.5924 9.34259V8.09299H35.2814V19.764H32.5924V18.5144C31.6681 19.4843 30.3909 19.9998 28.7267 19.9998C25.3677 19.9998 22.8572 17.4069 22.8572 13.8695C22.8572 10.3544 25.3446 7.85713 28.7267 7.85713ZM41.3226 4.46076V8.09295H44.6897V10.424H41.3462V15.9096C41.3462 16.9857 41.9332 17.539 43.0262 17.539C43.5611 17.539 44.2883 17.433 44.8194 17.275L45.0117 17.2179L45.3704 19.5589L45.2407 19.6102C44.6499 19.8436 43.6241 19.9998 42.6954 19.9998C40.2009 19.9998 38.6572 18.5678 38.6572 16.1927V10.424H36.6369V8.09295H38.6926V4.46076H41.3226ZM51.8556 7.85713C55.3794 7.85713 58.0559 10.4957 58.0559 13.9285C58.0559 17.3612 55.3794 19.9998 51.8556 19.9998C48.3319 19.9998 45.6553 17.3612 45.6553 13.9285C45.6553 10.4957 48.3319 7.85713 51.8556 7.85713ZM101.823 7.85713C105.557 7.85713 108.03 10.935 107.403 14.6938L107.357 14.9525H98.6093C99.0641 16.5856 100.406 17.4801 102.438 17.4801C103.677 17.4801 104.767 17.1805 106.332 16.4357L106.542 16.3361L106.954 18.8083L106.848 18.8686C105.511 19.626 104.052 19.9998 102.438 19.9998C98.5274 19.9998 95.812 17.5186 95.812 13.9285C95.812 10.4411 98.3536 7.85713 101.823 7.85713ZM94.6929 8.09293V10.2745L89.0311 17.4329H95.0591V19.7639H85.8366V17.5823L91.4984 10.424H85.9548V8.09293H94.6929ZM73.9528 7.85713C76.9724 7.85713 78.7826 9.76246 78.7826 12.7138V19.764H76.0817V13.2091C76.0817 11.4374 75.1612 10.424 73.5865 10.424C71.9398 10.424 70.7429 11.4659 70.6896 13.0676V19.764H67.9888V13.2091C67.9888 11.4374 67.0682 10.424 65.4936 10.424C63.8033 10.424 62.5967 11.5198 62.5967 13.2091V19.764H59.8958V8.09299H62.5967V9.17616C63.2828 8.41085 64.4105 7.85713 65.8598 7.85713C67.6958 7.85713 69.1011 8.55534 69.9088 9.81507L69.9767 9.7228C70.8307 8.59523 72.272 7.85713 73.9528 7.85713ZM83.9613 8.09293V19.7639H81.2723V8.09293H83.9613ZM29.0102 10.3061C26.9768 10.3061 25.5462 11.8201 25.5462 13.8695C25.5462 15.9457 26.9993 17.5508 29.0102 17.5508C31.0427 17.5508 32.5806 15.92 32.5806 13.8695C32.5806 11.8492 31.0583 10.3061 29.0102 10.3061ZM51.8556 10.4004C49.8355 10.4004 48.3444 11.9157 48.3444 13.9284C48.3444 15.9412 49.8355 17.4565 51.8556 17.4565C53.8758 17.4565 55.3669 15.9412 55.3669 13.9284C55.3669 11.9157 53.8758 10.4004 51.8556 10.4004ZM101.894 10.3414C100.221 10.3414 98.9626 11.2628 98.6745 12.6501L98.6574 12.7393H104.899L104.883 12.6459C104.631 11.2258 103.526 10.3414 101.894 10.3414ZM82.6168 2.85693C83.5659 2.85693 84.2448 3.52679 84.2448 4.47059C84.2448 5.41438 83.5659 6.08424 82.6168 6.08424C81.6696 6.08424 81.0005 5.41636 81.0005 4.47059C81.0005 3.52481 81.6696 2.85693 82.6168 2.85693Z" fill="black"/>
</svg>
