<svg width="40" height="40" viewBox="0 0 40 40" fill="none" xmlns="http://www.w3.org/2000/svg">
<circle opacity="0.08" cx="20" cy="20" r="20" fill="white"/>
<path fill-rule="evenodd" clip-rule="evenodd" d="M14.0006 11.2813L19.8139 10.6667L25.6272 11.2813L30.1278 17.323L19.8139 29.3334L9.5 17.323L14.0006 11.2813Z" fill="#FDB300"/>
<path fill-rule="evenodd" clip-rule="evenodd" d="M13.6776 17.323L19.8139 29.3334L9.5 17.323H13.6776Z" fill="#EA6C00"/>
<path fill-rule="evenodd" clip-rule="evenodd" d="M25.9497 17.323L19.8135 29.3334L30.1274 17.323H25.9497Z" fill="#EA6C00"/>
<path fill-rule="evenodd" clip-rule="evenodd" d="M13.678 17.323H25.9505L19.8142 29.3334L13.678 17.323Z" fill="#FDAD00"/>
<path fill-rule="evenodd" clip-rule="evenodd" d="M19.8142 10.6667L14.0009 11.2813L13.678 17.323L19.8142 10.6667Z" fill="#FDD231"/>
<path fill-rule="evenodd" clip-rule="evenodd" d="M19.8142 10.6667L25.6275 11.2813L25.9504 17.323L19.8142 10.6667Z" fill="#FDD231"/>
<path fill-rule="evenodd" clip-rule="evenodd" d="M30.1274 17.3229L25.6267 11.2812L25.9497 17.3229H30.1274Z" fill="#FDAD00"/>
<path fill-rule="evenodd" clip-rule="evenodd" d="M9.5 17.3229L14.0006 11.2812L13.6776 17.3229H9.5Z" fill="#FDAD00"/>
<path fill-rule="evenodd" clip-rule="evenodd" d="M19.8142 10.6667L13.678 17.323H25.9505L19.8142 10.6667Z" fill="#FEEEB7"/>
</svg>
