<svg width="25" height="25" viewBox="0 0 25 25" fill="none" xmlns="http://www.w3.org/2000/svg">
<path fill-rule="evenodd" clip-rule="evenodd" d="M25 24.1428H1C1 17.5154 6.37258 12.1428 13 12.1428C19.6274 12.1428 25 17.5154 25 24.1428Z" fill="black"/>
<path opacity="0.62" fill-rule="evenodd" clip-rule="evenodd" d="M25.0001 1.85718C25.0001 5.64427 21.93 8.71432 18.1429 8.71432C14.3558 8.71432 11.2858 5.64427 11.2858 1.85718H25.0001Z" fill="black"/>
<g filter="url(#filter0_dd)">
<path fill-rule="evenodd" clip-rule="evenodd" d="M4.42857 8.71432C6.32212 8.71432 7.85714 7.1793 7.85714 5.28575C7.85714 3.3922 6.32212 1.85718 4.42857 1.85718C2.53502 1.85718 1 3.3922 1 5.28575C1 7.1793 2.53502 8.71432 4.42857 8.71432Z" fill="black"/>
</g>
<defs>
<filter id="filter0_dd" x="0" y="0.857178" width="8.85714" height="9.85714" filterUnits="userSpaceOnUse" color-interpolation-filters="sRGB">
<feFlood flood-opacity="0" result="BackgroundImageFix"/>
<feColorMatrix in="SourceAlpha" type="matrix" values="0 0 0 0 0 0 0 0 0 0 0 0 0 0 0 0 0 0 127 0"/>
<feOffset dy="1"/>
<feGaussianBlur stdDeviation="0.5"/>
<feColorMatrix type="matrix" values="0 0 0 0 0.0392157 0 0 0 0 0.0862745 0 0 0 0 0.27451 0 0 0 0.1 0"/>
<feBlend mode="normal" in2="BackgroundImageFix" result="effect1_dropShadow"/>
<feColorMatrix in="SourceAlpha" type="matrix" values="0 0 0 0 0 0 0 0 0 0 0 0 0 0 0 0 0 0 127 0"/>
<feOffset/>
<feGaussianBlur stdDeviation="0.5"/>
<feColorMatrix type="matrix" values="0 0 0 0 0.0392157 0 0 0 0 0.0862745 0 0 0 0 0.27451 0 0 0 0.06 0"/>
<feBlend mode="normal" in2="effect1_dropShadow" result="effect2_dropShadow"/>
<feBlend mode="normal" in="SourceGraphic" in2="effect2_dropShadow" result="shape"/>
</filter>
</defs>
</svg>
