<svg width="24" height="24" viewBox="0 0 24 24" fill="none" xmlns="http://www.w3.org/2000/svg">
<path fill-rule="evenodd" clip-rule="evenodd" d="M20.424 6.75697C19.7838 7.05498 19.0945 7.25651 18.3714 7.34656C19.1098 6.88346 19.6764 6.14916 19.9433 5.27443C19.252 5.70322 18.488 6.01516 17.6719 6.18239C17.0214 5.45452 16.0918 5 15.0629 5C13.0901 5 11.4896 6.67764 11.4896 8.74656C11.4896 9.04028 11.5202 9.32543 11.5816 9.59985C8.61062 9.44335 5.97712 7.9533 4.21294 5.68392C3.9051 6.23921 3.7292 6.88346 3.7292 7.56953C3.7292 8.86877 4.36021 10.0158 5.31952 10.6879C4.73453 10.6697 4.18226 10.4992 3.69954 10.2205V10.2666C3.69954 12.0826 4.93191 13.5973 6.56825 13.9403C6.2686 14.0282 5.95258 14.0721 5.62633 14.0721C5.39622 14.0721 5.17122 14.0496 4.95339 14.0057C5.40849 15.4936 6.7278 16.5774 8.29255 16.6063C7.06938 17.6118 5.52713 18.211 3.85294 18.211C3.56454 18.211 3.2792 18.1939 3 18.1596C4.58214 19.2208 6.46189 19.8415 8.47971 19.8415C15.0558 19.8415 18.6506 14.1332 18.6506 9.18178C18.6506 9.01884 18.6475 8.8559 18.6414 8.69618C19.3399 8.16769 19.9464 7.50843 20.424 6.75697Z" fill="black"/>
</svg>
