<svg width="109" height="20" viewBox="0 0 109 20" fill="none" xmlns="http://www.w3.org/2000/svg">
<path fill-rule="evenodd" clip-rule="evenodd" d="M0 2.85712L5.2391 2.85712C9.3783 2.85712 10.8793 3.28809 12.3925 4.09738C13.9057 4.90666 15.0933 6.09425 15.9026 7.60748C16.7119 9.1207 17.1429 10.6217 17.1429 14.7609V20C7.67512 20 0 12.3249 0 2.85712Z" fill="url(#paint0_linear)"/>
<path fill-rule="evenodd" clip-rule="evenodd" d="M16.7857 5.00002C17.7719 5.00002 18.5714 4.20053 18.5714 3.2143C18.5714 2.22808 17.7719 1.42859 16.7857 1.42859C15.7995 1.42859 15 2.22808 15 3.2143C15 4.20053 15.7995 5.00002 16.7857 5.00002Z" fill="url(#paint1_linear)"/>
<path fill-rule="evenodd" clip-rule="evenodd" d="M0 2.85712L17.1429 20H0V2.85712Z" fill="url(#paint2_linear)"/>
<path fill-rule="evenodd" clip-rule="evenodd" d="M84.2448 4.47077C84.2448 3.52698 83.5659 2.85712 82.6167 2.85712C81.6696 2.85712 81.0005 3.52499 81.0005 4.47077C81.0005 5.41655 81.6696 6.08442 82.6167 6.08442C83.5659 6.08442 84.2448 5.41456 84.2448 4.47077ZM41.3226 4.46094V8.09313H44.6897V10.4242H41.3462V15.9098C41.3462 16.9858 41.9332 17.5392 43.0262 17.5392C43.5611 17.5392 44.2883 17.4331 44.8194 17.2752L45.0117 17.218L45.3704 19.5591L45.2407 19.6104C44.6499 19.8438 43.6241 20 42.6954 20C40.2008 20 38.6571 18.568 38.6571 16.1928V10.4242H36.6369V8.09313H38.6926V4.46094H41.3226ZM28.7266 7.85726C30.3908 7.85726 31.6681 8.37282 32.5923 9.34272V8.09312H35.2814V19.7641H32.5923V18.5145C31.6681 19.4844 30.3908 20 28.7266 20C25.3677 20 22.8571 17.407 22.8571 13.8696C22.8571 10.3545 25.3446 7.85726 28.7266 7.85726ZM58.0559 13.9286C58.0559 10.4958 55.3794 7.85726 51.8556 7.85726C48.3318 7.85726 45.6553 10.4958 45.6553 13.9286C45.6553 17.3614 48.3318 20 51.8556 20C55.3794 20 58.0559 17.3614 58.0559 13.9286ZM101.823 7.85726C105.557 7.85726 108.03 10.9351 107.403 14.6939L107.356 14.9526H98.6093C99.0641 16.5857 100.406 17.4802 102.438 17.4802C103.677 17.4802 104.766 17.1806 106.332 16.4358L106.542 16.3362L106.954 18.8084L106.848 18.8687C105.511 19.6261 104.052 20 102.438 20C98.5273 20 95.812 17.5187 95.812 13.9286C95.812 10.4412 98.3536 7.85726 101.823 7.85726ZM94.6928 10.2747V8.09316H85.9547V10.4242H91.4983L85.8366 17.5826V19.7641H95.0591V17.4331H89.0311L94.6928 10.2747ZM73.9527 7.85726C76.9724 7.85726 78.7825 9.76259 78.7825 12.7139V19.7641H76.0817V13.2092C76.0817 11.4375 75.1612 10.4242 73.5865 10.4242C71.9398 10.4242 70.7428 11.466 70.6896 13.0677V19.7641H67.9887V13.2092C67.9887 11.4375 67.0682 10.4242 65.4935 10.4242C63.8032 10.4242 62.5966 11.52 62.5966 13.2092V19.7641H59.8958V8.09312H62.5966V9.17629C63.2827 8.41098 64.4105 7.85726 65.8598 7.85726C67.6957 7.85726 69.1011 8.55548 69.9087 9.8152L69.9767 9.72293C70.8306 8.59536 72.272 7.85726 73.9527 7.85726ZM83.9613 19.7641V8.09316H81.2722V19.7641H83.9613ZM29.0102 10.3063C26.9767 10.3063 25.5462 11.8203 25.5462 13.8697C25.5462 15.9458 26.9992 17.551 29.0102 17.551C31.0426 17.551 32.5805 15.9202 32.5805 13.8697C32.5805 11.8493 31.0583 10.3063 29.0102 10.3063ZM48.3443 13.9286C48.3443 11.9159 49.8354 10.4006 51.8556 10.4006C53.8757 10.4006 55.3668 11.9159 55.3668 13.9286C55.3668 15.9414 53.8757 17.4567 51.8556 17.4567C49.8354 17.4567 48.3443 15.9414 48.3443 13.9286ZM101.894 10.3416C100.221 10.3416 98.9625 11.263 98.6744 12.6503L98.6574 12.7395H104.899L104.883 12.6461C104.631 11.226 103.526 10.3416 101.894 10.3416Z" fill="black"/>
<defs>
<linearGradient id="paint0_linear" x1="11.5691" y1="2.74464" x2="5.69741" y2="8.49268" gradientUnits="userSpaceOnUse">
<stop stop-color="#1C9FFF"/>
<stop offset="1" stop-color="#0C66FF"/>
</linearGradient>
<linearGradient id="paint1_linear" x1="13.3244" y1="3.2087" x2="16.7801" y2="6.66441" gradientUnits="userSpaceOnUse">
<stop stop-color="#FF275A"/>
<stop offset="1" stop-color="#FF8862"/>
</linearGradient>
<linearGradient id="paint2_linear" x1="4.28571" y1="7.14283" x2="-4.28571" y2="15.7143" gradientUnits="userSpaceOnUse">
<stop stop-color="#FFD100"/>
<stop offset="1" stop-color="#FF6100"/>
</linearGradient>
</defs>
</svg>
