<svg width="20" height="20" viewBox="0 0 20 20" fill="none" xmlns="http://www.w3.org/2000/svg">
<path d="M8.05559 16.6667C9.28225 16.6667 10.2778 15.6711 10.2778 14.4444V12.2222H8.05559C6.82893 12.2222 5.83337 13.2178 5.83337 14.4444C5.83337 15.6711 6.82893 16.6667 8.05559 16.6667Z" fill="#5FCC89"/>
<path d="M5.83337 9.99999C5.83337 8.77332 6.82893 7.77777 8.05559 7.77777H10.2778V12.2222H8.05559C6.82893 12.2222 5.83337 11.2266 5.83337 9.99999Z" fill="#985DF6"/>
<path d="M5.83447 5.55553C5.83447 4.32887 6.83002 3.33331 8.05669 3.33331H10.2789V7.77774H8.05669C6.83002 7.77774 5.83447 6.78219 5.83447 5.55553Z" fill="#E05A32"/>
<path d="M10.2781 3.33331H12.5003C13.727 3.33331 14.7225 4.32887 14.7225 5.55553C14.7225 6.78219 13.727 7.77774 12.5003 7.77774H10.2781V3.33331Z" fill="#EE7A69"/>
<path d="M14.7225 9.99999C14.7225 11.2266 13.727 12.2222 12.5003 12.2222C11.2736 12.2222 10.2781 11.2266 10.2781 9.99999C10.2781 8.77332 11.2736 7.77777 12.5003 7.77777C13.727 7.77777 14.7225 8.77332 14.7225 9.99999Z" fill="#58B9F8"/>
</svg>
