<svg width="20" height="20" viewBox="0 0 20 20" fill="none" xmlns="http://www.w3.org/2000/svg">
<path fill-rule="evenodd" clip-rule="evenodd" d="M5.71472 3.7723L9.86706 3.33331L14.0194 3.7723L17.2341 8.08777L9.86706 16.6666L2.5 8.08777L5.71472 3.7723Z" fill="#FDB300"/>
<path fill-rule="evenodd" clip-rule="evenodd" d="M5.48403 8.08771L9.86707 16.6666L2.5 8.08771H5.48403Z" fill="#EA6C00"/>
<path fill-rule="evenodd" clip-rule="evenodd" d="M14.2499 8.08771L9.86682 16.6666L17.2339 8.08771H14.2499Z" fill="#EA6C00"/>
<path fill-rule="evenodd" clip-rule="evenodd" d="M5.48425 8.08771H14.2503L9.86729 16.6666L5.48425 8.08771Z" fill="#FDAD00"/>
<path fill-rule="evenodd" clip-rule="evenodd" d="M9.86729 3.33331L5.71493 3.7723L5.48425 8.08777L9.86729 3.33331Z" fill="#FDD231"/>
<path fill-rule="evenodd" clip-rule="evenodd" d="M9.86733 3.33331L14.0197 3.7723L14.2504 8.08777L9.86733 3.33331Z" fill="#FDD231"/>
<path fill-rule="evenodd" clip-rule="evenodd" d="M17.2339 8.08776L14.0191 3.77228L14.2499 8.08776H17.2339Z" fill="#FDAD00"/>
<path fill-rule="evenodd" clip-rule="evenodd" d="M2.5 8.08776L5.71471 3.77228L5.48403 8.08776H2.5Z" fill="#FDAD00"/>
<path fill-rule="evenodd" clip-rule="evenodd" d="M9.86729 3.33331L5.48425 8.08777H14.2503L9.86729 3.33331Z" fill="#FEEEB7"/>
</svg>
